<?xml version="1.0" encoding="UTF-8"?><svg id="Layer_1" xmlns="http://www.w3.org/2000/svg" viewBox="0 0 1500 310"><defs><style>.cls-1{fill:#fff;}</style></defs><g><path class="cls-1" d="M374.27,155.18c0-12.39,1.64-22.8,4.9-31.25,3.27-8.44,7.97-15.21,14.11-20.31,6.14-5.1,13.65-8.74,22.54-10.93,8.89-2.19,18.9-3.28,30.03-3.28,20.53,0,37.03,3.55,49.47,10.66,12.45,7.1,19.41,19.71,20.91,37.8h-39.06c-1.15-7.04-4.42-11.66-9.81-13.85-5.39-2.19-12.56-3.28-21.51-3.28-4.59,0-8.89,.3-12.91,.91-4.02,.61-7.46,1.82-10.33,3.64-2.87,1.82-5.13,4.49-6.8,8.02-1.67,3.53-2.5,8.2-2.5,14.03v15.67c0,5.71,.8,10.29,2.41,13.76,1.61,3.46,3.84,6.1,6.71,7.92,2.87,1.82,6.31,3.04,10.33,3.64,4.01,.61,8.37,.91,13.08,.91,8.49,0,15.49-1.06,20.99-3.19,5.51-2.12,9-6.41,10.5-12.84h39.06c-1.72,17.25-8.81,29.45-21.25,36.62-12.45,7.17-28.88,10.75-49.3,10.75-11.13,0-21.14-1.03-30.03-3.1-8.89-2.06-16.41-5.59-22.54-10.57-6.14-4.98-10.84-11.69-14.11-20.13-3.27-8.44-4.9-18.98-4.9-31.61Z"/><path class="cls-1" d="M572.77,125.3h-47.48v-33.16h134.2v33.16h-47.48v92.55h-39.24V125.3Z"/><path class="cls-1" d="M674.06,92.15h107.38v33.16h-68.72v16.76h37.65v32.43h-37.65v43.36h-38.65V92.15Z"/></g><g><path class="cls-1" d="M143.03,8.43h12.12s.92,5.78,.92,5.78c4.97,23.91,38.99,22.54,38.99,22.54h35.84c19.63,0,35.55,15.92,35.55,35.55v23.57h-29.56v-20.08c0-5.24-4.25-9.48-9.48-9.48h-30.22s-39.43,2.66-54.14-20.99c-14.71,23.65-54.14,20.99-54.14,20.99h-30.22c-5.24,0-9.48,4.25-9.48,9.48v20.08H19.62v-23.57c0-19.63,15.92-35.55,35.55-35.55h35.84s34.02,1.37,38.99-22.54l.92-5.78h12.12Z"/><path class="cls-1" d="M143.03,301.57h-12.12s-.92-5.78-.92-5.78c-4.97-23.91-38.99-22.54-38.99-22.54H55.17c-19.63,0-35.55-15.92-35.55-35.55v-23.57s29.56,0,29.56,0v20.08c0,5.24,4.25,9.48,9.48,9.48h30.22s39.43-2.66,54.14,20.99c14.71-23.65,54.14-20.99,54.14-20.99h30.22c5.24,0,9.48-4.25,9.48-9.48v-20.08s29.56,0,29.56,0v23.57c0,19.63-15.92,35.55-35.55,35.55h-35.84s-34.02-1.37-38.99,22.54l-.92,5.78h-12.12Z"/><polygon class="cls-1" points="211.93 108.13 170.97 108.13 173.8 95.87 107.12 95.87 79.83 214.13 105.37 214.13 114.44 174.85 155.54 174.85 128.65 179.9 126.99 187.1 193.67 187.1 180.02 147.62 211.93 108.13"/></g><g><path class="cls-1" d="M788.43,92.15h33.84v48.62c3.68-4.83,8.53-8.39,14.57-10.69,6.03-2.3,13.25-3.45,21.64-3.45,14.25,0,21.95,3.68,30.12,11.03,8.16,7.36,12,19.17,12,35.95s-3.84,28.59-12,35.95c-8.16,7.36-15.86,11.03-30.12,11.03-8.62,0-16.06-1.24-22.33-3.71-6.27-2.47-11.18-6.29-14.74-11.46l-7.77,12.59h-25.21V92.15Zm81.38,80.95c0-12.62-4.74-17.15-8.36-19.27-3.62-2.13-9.36-3.45-16.94-3.45s-13.33,1.98-16.9,4.1c-3.56,2.13-5.34,6.06-5.34,11.81v14.66c0,5.98,1.78,9.97,5.34,11.98,3.56,2.01,9.19,4.15,16.9,4.15s13.07-1.38,16.69-3.4c3.62-2.01,8.62-5.96,8.62-20.58Z"/><path class="cls-1" d="M1022.47,218h-25.21s-7.77-12.59-7.77-12.59c-3.56,5.17-8.48,8.99-14.74,11.46-6.26,2.47-13.71,3.71-22.33,3.71-14.25,0-21.95-3.68-30.12-11.03-8.16-7.35-12-19.51-12-35.95,0-16.78,3.84-28.59,12-35.95,8.16-7.36,15.86-11.03,30.12-11.03,8.39,0,15.6,1.15,21.64,3.45,6.03,2.3,10.89,5.86,14.57,10.69v-12.82h33.84v90.05Zm-72.77-24.33c3.62,2.01,9.1,3.4,16.69,3.4,7.7,0,13.33-2.14,16.9-4.15,3.56-2.01,5.34-6.01,5.34-11.98v-14.66c0-5.75-1.78-9.68-5.34-11.81-3.56-2.13-9.19-4.1-16.9-4.1-7.59,0-13.32,1.33-16.94,3.45-3.62,2.13-8.36,6.66-8.36,19.27,0,14.62,5,18.57,8.62,20.58Z"/><path class="cls-1" d="M1243.37,218h-25.21s-7.77-12.59-7.77-12.59c-3.56,5.17-8.48,8.99-14.74,11.46-6.26,2.47-13.71,3.71-22.33,3.71-14.25,0-21.95-3.68-30.12-11.03-8.16-7.35-12-19.51-12-35.95,0-16.78,3.84-28.59,12-35.95,8.16-7.36,15.86-11.03,30.12-11.03,8.39,0,15.6,1.15,21.64,3.45,6.03,2.3,10.89,5.86,14.57,10.69v-12.82h33.84v90.05Zm-72.77-24.33c3.62,2.01,9.1,3.4,16.69,3.4,7.7,0,13.33-2.14,16.9-4.15,3.56-2.01,5.34-6.01,5.34-11.98v-14.66c0-5.75-1.78-9.68-5.34-11.81-3.56-2.13-9.19-4.1-16.9-4.1-7.59,0-13.32,1.33-16.94,3.45-3.62,2.13-8.36,6.66-8.36,19.27,0,14.62,5,18.57,8.62,20.58Z"/><path class="cls-1" d="M1364.59,218h-25.21s-7.77-12.59-7.77-12.59c-3.56,5.17-8.48,8.99-14.74,11.46-6.26,2.47-13.71,3.71-22.33,3.71-14.25,0-21.95-3.68-30.12-11.03-8.16-7.35-12-19.51-12-35.95,0-16.78,3.84-28.59,12-35.95,8.16-7.36,15.86-11.03,30.12-11.03,8.39,0,15.6,1.15,21.64,3.45,6.03,2.3,10.89,5.86,14.57,10.69v-12.82h33.84v90.05Zm-72.77-24.33c3.62,2.01,9.1,3.4,16.69,3.4,7.7,0,13.33-2.14,16.9-4.15,3.56-2.01,5.34-6.01,5.34-11.98v-14.66c0-5.75-1.78-9.68-5.34-11.81-3.56-2.13-9.19-4.1-16.9-4.1-7.59,0-13.32,1.33-16.94,3.45-3.62,2.13-8.36,6.66-8.36,19.27,0,14.62,5,18.57,8.62,20.58Z"/><path class="cls-1" d="M1032.2,191.8l47.94-38.13h-47.11v-25.75h90.57v25.75l-48.11,38.13h50.93v25.9h-94.22v-25.9Z"/><path class="cls-1" d="M1374.37,127.12h34.36v19.22c2.07-5.63,5.54-10.11,10.43-13.45,4.88-3.33,11.52-5,19.91-5h20.65v30.17h-26.86c-8.97,0-15.09,1.29-18.36,3.88-3.28,2.59-4.91,6.64-4.91,12.15v44.39h-35.22V127.12Z"/></g><circle class="cls-1" cx="1459.72" cy="199.92" r="20.66"/></svg>