<?xml version="1.0" encoding="UTF-8"?>
<svg id="Layer_1" xmlns="http://www.w3.org/2000/svg" viewBox="0 0 1400 430">
  <defs>
    <style>
      .cls-1 {
      fill: #8c52ff;
      }

      .cls-2 {
      fill: none;
      }

      .cls-3 {
      fill: #FFFFFF;

      }
    </style>
  </defs>
  <polygon
    class="cls-3"
    points="339.52 310.5 393.83 310.5 393.83 230.91 455.29 230.91 455.29 183.61 393.83 183.61 393.83 151.77 467.94 151.77 467.94 104.48 339.52 104.48 339.52 310.5" />
  <path
    class="cls-3"
    d="M596.71,188.06c-9.15-6.3-20.04-9.45-32.62-9.45-7.7,0-14.59,1.12-20.68,3.36-6.09,2.24-11,4.94-14.75,8.11-3.74,3.18-6.19,6.16-7.33,8.97v-94.58h-54.95v206.02h54.47v-19.21c2.5,4.06,5.96,7.83,10.39,11.32,4.41,3.49,9.46,6.3,15.13,8.44,5.68,2.12,11.57,3.19,17.72,3.19,12.58,0,23.47-3.12,32.62-9.36,9.15-6.24,16.18-14.51,21.08-24.82,4.88-10.29,7.33-21.48,7.33-33.55s-2.45-23.26-7.33-33.56c-4.89-10.31-11.92-18.6-21.08-24.89ZM567.91,259.07c-2.14,3.81-5.08,6.79-8.82,8.98-3.74,2.18-8.01,3.28-12.79,3.28s-9.05-1.1-12.81-3.28c-3.74-2.19-6.71-5.17-8.89-8.98-2.19-3.8-3.28-7.99-3.28-12.56s1.08-8.77,3.28-12.57c2.18-3.8,5.15-6.81,8.89-9.05,3.75-2.24,8.01-3.35,12.81-3.35s9.05,1.11,12.79,3.35c3.74,2.25,6.68,5.26,8.82,9.05,2.14,3.8,3.21,7.99,3.21,12.57s-1.07,8.76-3.21,12.56Z" />
  <path
    class="cls-3"
    d="M724.84,182.36v16.7c-1.56-2.81-4.19-5.78-7.89-8.89-3.68-3.14-8.37-5.83-14.05-8.13-5.67-2.28-12.3-3.43-19.9-3.43-12.7,0-23.68,3.15-32.93,9.45-9.27,6.28-16.41,14.58-21.46,24.89-5.05,10.31-7.58,21.48-7.58,33.56s2.53,23.26,7.58,33.55c5.05,10.31,12.19,18.57,21.46,24.82,9.25,6.24,20.23,9.36,32.93,9.36,8.01,0,15-1.48,20.99-4.44s10.8-6.3,14.44-10c3.64-3.68,5.98-6.52,7.02-8.51v19.21h54.31v-128.15h-54.93ZM721.63,259.07c-2.12,3.81-5.05,6.79-8.73,8.98-3.7,2.18-7.94,3.28-12.72,3.28s-9.05-1.1-12.79-3.28c-3.74-2.19-6.71-5.17-8.9-8.98-2.18-3.8-3.28-7.99-3.28-12.56s1.1-8.77,3.28-12.57c2.19-3.8,5.16-6.81,8.9-9.05,3.74-2.24,8.01-3.35,12.79-3.35s9.03,1.11,12.72,3.35c3.68,2.25,6.61,5.26,8.73,9.05,2.14,3.8,3.21,7.99,3.21,12.57s-1.07,8.76-3.21,12.56Z" />
  <path
    class="cls-3"
    d="M924.84,310.26v.24h-144.85l59-90.37h-48.07v-37.78h132.66l-59,90.38h36.92c1.87,14.72,13.08,27.84,23.34,37.53Z" />
  <path
    class="cls-3"
    d="M1012.16,199.06c-1.56-2.81-4.19-5.78-7.89-8.89-3.68-3.14-8.37-5.83-14.05-8.13-5.67-2.28-12.3-3.43-19.9-3.43-12.7,0-23.68,3.15-32.93,9.45-9.27,6.28-16.42,14.58-21.47,24.89-5.03,10.31-7.56,21.48-7.56,33.56s2.53,23.26,7.56,33.55c5.05,10.31,12.2,18.57,21.47,24.82,9.25,6.24,20.23,9.36,32.93,9.36,8.01,0,15-1.48,20.99-4.44,5.98-2.97,10.8-6.3,14.44-10,3.64-3.68,5.98-6.52,7.02-8.51v19.21h54.31v-128.15h-54.93v16.7ZM1008.95,259.07c-2.12,3.81-5.05,6.79-8.73,8.98-3.7,2.18-7.94,3.28-12.72,3.28s-9.05-1.1-12.79-3.28c-3.75-2.19-6.72-5.17-8.9-8.98-2.18-3.8-3.28-7.99-3.28-12.56s1.1-8.77,3.28-12.57c2.18-3.8,5.15-6.81,8.9-9.05,3.74-2.24,8.01-3.35,12.79-3.35s9.03,1.11,12.72,3.35c3.68,2.25,6.61,5.26,8.73,9.05,2.14,3.8,3.21,7.99,3.21,12.57s-1.07,8.76-3.21,12.56Z" />
  <path
    class="cls-3"
    d="M1169.79,199.06c-1.57-2.81-4.19-5.78-7.89-8.89-3.7-3.14-8.38-5.83-14.05-8.13-5.67-2.28-12.3-3.43-19.9-3.43-12.7,0-23.68,3.15-32.94,9.45-9.25,6.28-16.41,14.58-21.46,24.89-5.05,10.31-7.56,21.48-7.56,33.56s2.52,23.26,7.56,33.55c5.05,10.31,12.2,18.57,21.46,24.82,9.27,6.24,20.25,9.36,32.94,9.36,8,0,15-1.48,20.99-4.44,5.98-2.97,10.78-6.3,14.43-10,3.64-3.68,5.99-6.52,7.03-8.51v19.21h54.31v-128.15h-54.93v16.7ZM1166.58,259.07c-2.14,3.81-5.05,6.79-8.75,8.98-3.68,2.18-7.93,3.28-12.71,3.28s-9.05-1.1-12.81-3.28c-3.74-2.19-6.71-5.17-8.89-8.98-2.19-3.8-3.28-7.99-3.28-12.56s1.08-8.77,3.28-12.57c2.18-3.8,5.15-6.81,8.89-9.05,3.75-2.24,8.01-3.35,12.81-3.35s9.03,1.11,12.71,3.35c3.7,2.25,6.61,5.26,8.75,9.05,2.14,3.8,3.21,7.99,3.21,12.57s-1.07,8.76-3.21,12.56Z" />
  <path
    class="cls-3"
    d="M1348.17,181.43c-5.2-1.87-10.71-2.81-16.53-2.81-8.65,0-15.85,1.43-21.62,4.29-5.78,2.87-10.25,6.06-13.41,9.6-2.52,2.81-4.37,5.22-5.54,7.24v-17.39h-55.26v128.15h55.26v-61.81c0-3.74.83-7.65,2.49-11.7,1.66-4.06,4.4-7.47,8.2-10.22,3.8-2.76,8.82-4.15,15.06-4.15,5.51,0,10.15,1.01,13.89,3.05,3.74,2.02,6.3,4.04,7.65,6l21.23-44.8c-2.4-1.76-6.2-3.59-11.4-5.46Z" />
  <path class="cls-1"
    d="M1390.52,260.94c-6.09-6.07-13.44-9.13-22.07-9.13s-15.85,3.05-21.93,9.13c-6.09,6.09-9.13,13.51-9.13,22.24s3.04,15.85,9.13,21.93c6.09,6.09,13.4,9.13,21.93,9.13s15.99-3.04,22.07-9.13c6.09-6.09,9.14-13.4,9.14-21.93s-3.05-16.16-9.14-22.24Z" />
  <path
    class="cls-3"
    d="M136.73,104.48c-4.89-.48-10.01-.72-15.38-.72-14.97,0-29.1,2.64-42.39,7.93-13.29,5.27-25,12.67-35.15,22.14-10.17,9.49-18.11,20.68-23.86,33.55-5.74,12.88-8.6,26.86-8.6,41.93s2.87,29.01,8.6,41.77c5.75,12.77,13.72,23.87,23.93,33.31,10.21,9.45,21.92,16.77,35.15,22,13.24,5.23,27.35,7.85,42.32,7.85,16,0,29.88-2.1,41.62-6.3,11.74-4.22,20.02-8.37,24.84-12.47l-22.76-45.39c-3.8,2.46-9.29,4.92-16.46,7.38-7.18,2.46-14.83,3.7-22.93,3.7-10.05,0-18.64-1.49-25.77-4.46-7.13-2.98-12.95-6.99-17.46-12.01-4.51-5.02-7.82-10.64-9.93-16.84-2.09-6.21-3.15-12.54-3.15-19.01s1.05-12.61,3.15-18.77c2.11-6.16,5.18-11.96,9.93-16.77,24.18-24.55,74.8-21.53,74.8-21.53h81.49v158.73h54.31v-158.73h46.51v-47.3h-202.8Z" />
  <path class="cls-2" d="M73.68,163.73s-.04.03-.07.04" />
</svg>
