<?xml version="1.0" encoding="UTF-8"?><svg id="Layer_1" xmlns="http://www.w3.org/2000/svg" viewBox="0 0 1324.99 470"><defs><style>.cls-1{fill:#fff;}</style></defs><g><path class="cls-1" d="M491.5,143.17c0-18.15,2.4-33.41,7.19-45.78,4.79-12.37,11.68-22.29,20.68-29.76,8.99-7.47,20-12.81,33.03-16.02,13.02-3.2,27.69-4.8,44-4.8,30.09,0,54.25,5.2,72.49,15.62,18.24,10.41,28.45,28.87,30.63,55.39h-57.24c-1.68-10.32-6.47-17.08-14.37-20.29-7.9-3.2-18.41-4.8-31.52-4.8-6.73,0-13.03,.45-18.91,1.34-5.89,.89-10.93,2.67-15.13,5.34-4.2,2.67-7.52,6.59-9.96,11.75-2.44,5.17-3.66,12.01-3.66,20.55v22.96c0,8.37,1.17,15.08,3.53,20.15,2.35,5.07,5.63,8.94,9.83,11.61,4.2,2.67,9.24,4.45,15.13,5.34,5.88,.89,12.27,1.34,19.16,1.34,12.44,0,22.69-1.56,30.76-4.67,8.07-3.11,13.19-9.39,15.38-18.82h57.24c-2.52,25.27-12.9,43.16-31.14,53.66-18.24,10.5-42.32,15.75-72.24,15.75-16.31,0-30.97-1.51-44-4.54-13.03-3.02-24.04-8.18-33.03-15.48-8.99-7.3-15.88-17.12-20.68-29.5-4.79-12.37-7.19-27.8-7.19-46.31Z"/><path class="cls-1" d="M780.58,99.39h-69.57V50.81h196.64v48.58h-69.57V235h-57.5V99.39Z"/><path class="cls-1" d="M928.99,50.81h157.33v48.58h-100.7v24.56h55.17v47.51h-55.17v63.53h-56.64V50.81Z"/></g><g><path class="cls-1" d="M222.09,8.56h18.72s1.42,8.92,1.42,8.92c7.67,36.93,60.23,34.82,60.23,34.82h55.37c30.34,0,54.93,24.59,54.93,54.93v36.42h-45.68v-31.02c0-8.09-6.56-14.65-14.65-14.65h-46.7s-60.92,4.11-83.65-32.43c-22.72,36.54-83.65,32.43-83.65,32.43h-46.7c-8.09,0-14.65,6.56-14.65,14.65v31.02H31.42v-36.42c0-30.34,24.59-54.93,54.93-54.93h55.37s52.56,2.12,60.23-34.82l1.42-8.92h18.72Z"/><path class="cls-1" d="M222.09,461.44h-18.72s-1.42-8.92-1.42-8.92c-7.67-36.93-60.23-34.82-60.23-34.82h-55.37c-30.34,0-54.93-24.59-54.93-54.93v-36.42s45.68,0,45.68,0v31.02c0,8.09,6.56,14.65,14.65,14.65h46.7s60.92-4.11,83.65,32.43c22.72-36.54,83.65-32.43,83.65-32.43h46.7c8.09,0,14.65-6.56,14.65-14.65v-31.02s45.68,0,45.68,0v36.42c0,30.34-24.59,54.93-54.93,54.93h-55.37s-52.56-2.12-60.23,34.82l-1.42,8.92h-18.72Z"/><polygon class="cls-1" points="328.55 162.58 265.26 162.58 269.64 143.65 166.62 143.65 124.45 326.35 163.91 326.35 177.92 265.66 241.42 265.66 199.89 273.47 197.31 284.6 300.33 284.6 279.24 223.59 328.55 162.58"/></g><g><path class="cls-1" d="M501.45,267.06h39.51v56.77c4.29-5.64,9.97-9.8,17.01-12.48,7.05-2.68,15.47-4.03,25.27-4.03,16.64,0,25.63,4.3,35.17,12.89,9.53,8.59,14.01,22.38,14.01,41.97s-4.48,33.39-14.01,41.98c-9.53,8.59-18.53,12.88-35.17,12.88-10.07,0-18.76-1.44-26.07-4.33-7.32-2.88-13.05-7.35-17.21-13.39l-9.07,14.7h-29.44v-146.96Zm95.03,94.53c0-14.73-5.54-20.02-9.76-22.51-4.23-2.48-10.93-4.03-19.78-4.03s-15.57,2.31-19.73,4.79c-4.16,2.48-6.24,7.08-6.24,13.79v17.11c0,6.98,2.08,11.64,6.24,13.99,4.16,2.35,10.74,4.85,19.73,4.85s15.26-1.62,19.49-3.97c4.23-2.35,10.06-6.96,10.06-24.03Z"/><path class="cls-1" d="M774.74,414.02h-29.44s-9.07-14.7-9.07-14.7c-4.16,6.04-9.9,10.5-17.21,13.39-7.31,2.89-16.01,4.33-26.07,4.33-16.64,0-25.63-4.29-35.17-12.88-9.53-8.59-14.01-22.78-14.01-41.98,0-19.59,4.48-33.38,14.01-41.97,9.53-8.59,18.53-12.89,35.17-12.89,9.8,0,18.22,1.34,25.27,4.03,7.05,2.69,12.72,6.85,17.01,12.48v-14.97h39.51v105.16Zm-84.97-28.41c4.23,2.35,10.63,3.97,19.49,3.97,8.99,0,15.57-2.5,19.73-4.85,4.16-2.35,6.24-7.01,6.24-13.99v-17.11c0-6.71-2.08-11.31-6.24-13.79-4.16-2.48-10.74-4.79-19.73-4.79-8.86,0-15.56,1.55-19.78,4.03-4.23,2.48-9.76,7.77-9.76,22.51,0,17.07,5.83,21.68,10.06,24.03Z"/><path class="cls-1" d="M1032.7,414.02h-29.44s-9.07-14.7-9.07-14.7c-4.16,6.04-9.9,10.5-17.21,13.39-7.31,2.89-16.01,4.33-26.07,4.33-16.64,0-25.63-4.29-35.17-12.88-9.53-8.59-14.01-22.78-14.01-41.98,0-19.59,4.48-33.38,14.01-41.97,9.53-8.59,18.53-12.89,35.17-12.89,9.8,0,18.22,1.34,25.27,4.03,7.05,2.69,12.72,6.85,17.01,12.48v-14.97h39.51v105.16Zm-84.97-28.41c4.23,2.35,10.63,3.97,19.49,3.97,8.99,0,15.57-2.5,19.73-4.85,4.16-2.35,6.24-7.01,6.24-13.99v-17.11c0-6.71-2.08-11.31-6.24-13.79-4.16-2.48-10.74-4.79-19.73-4.79-8.86,0-15.56,1.55-19.78,4.03-4.23,2.48-9.76,7.77-9.76,22.51,0,17.07,5.83,21.68,10.06,24.03Z"/><path class="cls-1" d="M1174.25,414.02h-29.44s-9.07-14.7-9.07-14.7c-4.16,6.04-9.9,10.5-17.21,13.39-7.31,2.89-16.01,4.33-26.07,4.33-16.64,0-25.63-4.29-35.17-12.88-9.53-8.59-14.01-22.78-14.01-41.98,0-19.59,4.48-33.38,14.01-41.97,9.53-8.59,18.53-12.89,35.17-12.89,9.8,0,18.22,1.34,25.27,4.03,7.05,2.69,12.72,6.85,17.01,12.48v-14.97h39.51v105.16Zm-84.97-28.41c4.23,2.35,10.63,3.97,19.49,3.97,8.99,0,15.57-2.5,19.73-4.85,4.16-2.35,6.24-7.01,6.24-13.99v-17.11c0-6.71-2.08-11.31-6.24-13.79-4.16-2.48-10.74-4.79-19.73-4.79-8.86,0-15.56,1.55-19.78,4.03-4.23,2.48-9.76,7.77-9.76,22.51,0,17.07,5.83,21.68,10.06,24.03Z"/><path class="cls-1" d="M786.11,383.43l55.98-44.53h-55.01v-30.07h105.76v30.07l-56.18,44.53h59.47v30.25h-110.03v-30.25Z"/><path class="cls-1" d="M1185.67,307.9h40.12v22.45c2.42-6.57,6.47-11.81,12.18-15.7,5.7-3.89,13.45-5.84,23.25-5.84h24.12v35.23h-31.36c-10.47,0-17.62,1.51-21.44,4.53-3.82,3.02-5.74,7.75-5.74,14.19v51.84h-41.12v-106.7Z"/></g><circle class="cls-1" cx="1285.33" cy="391.17" r="23.43"/></svg>